<svg xmlns="http://www.w3.org/2000/svg" id="Layer_1" width="67.93" height="74.33" viewBox="0 0 67.93 74.33"><path d="M5.97,67.32C3.97,44.81,2,22.59,0,0h67.93c-.63,7.17-1.27,14.37-1.91,21.58-1.27,14.26-2.63,28.52-3.76,42.8-.21,2.63-1.22,3.6-3.66,4.34-25.56,7.72-28.62,7.69-52.63-1.39ZM25.25,39.87h17.33c-.17,9.04-1.19,10.4-8.13,11.29-4.13.53-8.4-2.69-9.35-7.09h-7.65c.55,3.8.07,9.42,1.68,10.11,5.86,2.48,11.53,6.14,18.81,4.65,9.08-1.86,13.44-5.91,12.87-15.83-.51-8.99.81-18.08,1.32-27.05H15.84c.13,2.63.24,4.9.39,7.85h27.64c-.39,2.99-.68,5.26-1.03,7.95h-17.59v8.13Z" fill="#0578bd" stroke-width="0"/><path d="M25.25,39.87v-8.13h17.59c.35-2.69.65-4.96,1.03-7.95h-27.64c-.15-2.95-.26-5.22-.39-7.85h36.3c-.51,8.97-1.83,18.06-1.32,27.05.56,9.92-3.79,13.97-12.87,15.83-7.28,1.49-12.95-2.17-18.81-4.65-1.61-.68-1.14-6.31-1.68-10.11h7.65c.95,4.4,5.22,7.62,9.35,7.09,6.93-.89,7.96-2.26,8.13-11.29h-17.33Z" fill="#fdfdfe" stroke-width="0"/></svg>