<svg xmlns="http://www.w3.org/2000/svg" id="Layer_1" width="226.07" height="256" viewBox="0 0 226.07 256"><path d="M0,0C75.36,0,150.71,0,226.07,0c-.73,8.45-1.43,16.9-2.19,25.35-5.98,66.93-11.99,133.85-17.86,200.78-.3,3.45-1.68,4.82-4.84,5.66-14.93,3.98-29.83,8.09-44.7,12.28-13.84,3.9-27.63,7.94-41.45,11.92h-5c-1.62-.67-3.2-1.5-4.87-1.97-24.81-6.93-49.64-13.81-74.46-20.72q-9.85-2.74-10.98-13.1c-.25-2.32-.5-4.63-.71-6.95-3.12-35.13-6.22-70.26-9.35-105.39C6.46,71.91,3.22,35.96,0,0ZM50.93,146.63c1.35,14.54,2.56,28.45,4.08,42.33.13,1.16,2.18,2.64,3.61,3.04,17.11,4.9,34.26,9.67,51.43,14.34,1.83.5,4.01.6,5.81.11,17.18-4.65,34.29-9.57,51.48-14.15,3.05-.81,3.8-2.26,4.04-5.1,1.4-16.42,3.03-32.82,4.51-49.23,1-11.07,1.87-22.16,2.84-33.76h-103.04c-.86-9.65-1.69-18.85-2.56-28.6h108.18c.88-9.65,1.73-18.84,2.59-28.3H42.11c2.57,28.64,5.1,56.92,7.68,85.73h97.66c-.99,11.4-1.8,22.18-3,32.93-.16,1.43-2,3.4-3.45,3.84-8.43,2.56-16.96,4.82-25.51,6.97-1.85.46-4.01.42-5.86-.05-8.22-2.08-16.35-4.55-24.59-6.54-3.11-.75-3.9-2.37-4.03-5.22-.23-4.99-.58-9.98-1.3-14.91-.19-1.26-1.93-3.24-3.01-3.27-8.31-.27-16.63-.15-25.77-.15Z" fill="#e34e27" stroke-width="0"/><path d="M50.93,146.63c9.13,0,17.46-.12,25.77.15,1.08.04,2.82,2.01,3.01,3.27.72,4.93,1.07,9.93,1.3,14.91.13,2.85.92,4.48,4.03,5.22,8.24,1.98,16.37,4.46,24.59,6.54,1.85.47,4.02.51,5.86.05,8.55-2.15,17.08-4.41,25.51-6.97,1.45-.44,3.29-2.41,3.45-3.84,1.19-10.74,2.01-21.53,3-32.93H49.79c-2.58-28.82-5.12-57.09-7.68-85.73h141.81c-.87,9.46-1.71,18.65-2.59,28.3h-108.18c.87,9.75,1.69,18.94,2.56,28.6h103.04c-.97,11.6-1.85,22.69-2.84,33.76-1.48,16.41-3.11,32.81-4.51,49.23-.24,2.85-1,4.29-4.04,5.1-17.2,4.58-34.31,9.5-51.48,14.15-1.81.49-3.99.39-5.81-.11-17.17-4.67-34.32-9.44-51.43-14.34-1.42-.41-3.48-1.89-3.61-3.04-1.52-13.88-2.73-27.79-4.08-42.33Z" fill="#fefdfd" stroke-width="0"/></svg>