<svg xmlns="http://www.w3.org/2000/svg" id="Layer_1" width="600" height="600" viewBox="0 0 600 600"><path d="M0,0c200,0,400,0,600,0,0,200,0,400,0,600-200,0-400,0-600,0C0,400,0,200,0,0ZM529.56,317.36c-8.23-14.64-18.57-26.59-33.22-34.17-19.72-10.2-40.84-11.72-62.24-8.05-28.53,4.9-50.26,19.79-58.58,48.36-8.57,29.42-3.47,56.79,19.58,78.94,13.33,12.81,30,20.04,46.57,27.48,11.96,5.37,23.96,10.74,35.44,17.03,9.61,5.26,14.74,13.99,13.42,25.32-1.39,11.89-9.17,18.72-20.01,21.7-21.39,5.9-40.97,2.43-57.16-13.63-5.01-4.97-9.09-10.86-13.79-16.56-14.56,8.44-29.19,16.93-44.01,25.52,8.52,16.82,20.39,30.09,36.2,39.49,28.3,16.82,58.93,19.68,90.65,13.51,20.4-3.97,38.24-13.04,50.33-30.57,15.01-21.76,15.86-45.74,8.57-70.26-5.91-19.86-20.14-33.24-37.69-42.69-16.79-9.03-34.53-16.3-51.64-24.76-6.64-3.29-13.29-7.06-18.89-11.84-7.36-6.29-8.64-15.16-6.08-24.28,2.55-9.07,9.17-14.14,18.15-15.82,15.43-2.89,27.81,2.22,36.89,15.1,1.69,2.39,3.3,4.83,5.08,7.45,14.22-9.13,28.06-18.02,42.43-27.25ZM162.79,495.13c11.38,23.44,28.54,39.39,53.35,46.24,19.86,5.48,39.88,5.36,59.63-.48,24.48-7.24,40.21-23.56,46.64-48.17,2.29-8.76,3.56-18.04,3.6-27.09.31-61.3.16-122.61.16-183.91v-4.67h-54.67c0,2.17,0,4.13,0,6.1,0,59.3.01,118.61-.02,177.91,0,3.65-.11,7.34-.61,10.96-1.44,10.48-5.35,19.35-16.52,22.74-15.3,4.64-28.94.06-38.3-12.91-3.09-4.27-5.78-8.83-8.85-13.57-14.77,8.94-29.39,17.78-44.4,26.87Z" fill="#f6de1e" stroke-width="0"/><path d="M529.56,317.36c-14.37,9.23-28.2,18.11-42.43,27.25-1.78-2.62-3.39-5.06-5.08-7.45-9.08-12.88-21.46-17.99-36.89-15.1-8.98,1.68-15.61,6.75-18.15,15.82-2.56,9.12-1.28,17.99,6.08,24.28,5.59,4.78,12.24,8.56,18.89,11.84,17.11,8.47,34.85,15.73,51.64,24.76,17.56,9.44,31.78,22.83,37.69,42.69,7.29,24.52,6.44,48.5-8.57,70.26-12.09,17.53-29.93,26.61-50.33,30.57-31.72,6.17-62.35,3.31-90.65-13.51-15.81-9.4-27.68-22.67-36.2-39.49,14.82-8.59,29.44-17.07,44.01-25.52,4.7,5.7,8.78,11.6,13.79,16.56,16.19,16.06,35.77,19.52,57.16,13.63,10.84-2.99,18.63-9.81,20.01-21.7,1.32-11.33-3.81-20.05-13.42-25.32-11.48-6.29-23.48-11.67-35.44-17.03-16.57-7.43-33.25-14.67-46.57-27.48-23.05-22.15-28.14-49.52-19.58-78.94,8.32-28.57,30.06-43.46,58.58-48.36,21.4-3.67,42.53-2.15,62.24,8.05,14.66,7.58,24.99,19.53,33.22,34.17Z" fill="#010100" stroke-width="0"/><path d="M162.79,495.13c15.01-9.08,29.63-17.93,44.4-26.87,3.07,4.74,5.76,9.3,8.85,13.57,9.37,12.97,23,17.56,38.3,12.91,11.17-3.39,15.09-12.26,16.52-22.74.5-3.61.6-7.3.61-10.96.04-59.3.02-118.61.02-177.91,0-1.96,0-3.93,0-6.1h54.67v4.67c0,61.3.15,122.61-.16,183.91-.05,9.05-1.31,18.33-3.6,27.09-6.43,24.61-22.17,40.93-46.64,48.17-19.74,5.84-39.77,5.96-59.63.48-24.82-6.85-41.98-22.8-53.35-46.24Z" fill="#010100" stroke-width="0"/></svg>