<?xml version="1.0" encoding="UTF-8"?><svg id="Layer_1" xmlns="http://www.w3.org/2000/svg" width="1274.56" height="1259.01" viewBox="0 0 1274.56 1259.01"><path d="M327.31,1259.01v-27.74h5.87c40.99,0,81.99.13,122.98-.15,6-.04,12.19-1.44,17.91-3.36,7.03-2.36,10.2-8.07,9.98-15.59-.12-4.15-.02-8.3-.02-13.14-2.24,0-4,0-5.77,0-29.33,0-58.66.32-87.98-.15-16.58-.26-32.65-3.67-46.92-12.87-11.39-7.34-17.6-17.13-17.28-31.46.62-27.81.21-55.65.22-83.48,0-1.81,0-3.61,0-5.72h41.46v5.57c0,26.66.42,53.33-.17,79.98-.32,14.3,3.09,22.42,23.37,22.91,27.81.67,55.65.17,83.48.18,3.12,0,6.24,0,9.65,0v-108.71h41.89c0,2.04,0,4,0,5.96-.03,45.82-.59,91.65.12,137.47.41,26.85-14.23,37.92-32.48,44.29-7.25,2.53-14.85,4.03-22.29,6h-144.02Z" fill="#04638b" stroke-width="0"/><path d="M1071.53,876.12c5.87,14.02,16.31,23.67,28.31,31.59,19.71,13,40.21,24.83,59.56,38.32,27.56,19.21,51.52,42.45,72.25,68.98,3.57,4.56,7.56,8.93,11.95,12.69,9.32,7.99,16.07,17.56,19.93,29.2.31.92.96,1.72,1.39,2.61.4.82.73,1.67.27,3.5-1.91-1.26-3.93-2.39-5.71-3.81-15.7-12.5-31.2-25.28-47.08-37.54-18.55-14.32-39.41-24.78-60.7-34.28-26.17-11.68-50.83-25.64-74.06-42.61-21.5-15.7-40.51-33.33-54.36-56.12-3.84-6.32-6.38-13.43-9.74-20.06-4.93-9.74-2.96-14.59,7.73-18.32,14.91-5.19,29.71-10.69,44.77-15.41,7.68-2.41,15.78-3.54,23.74-4.98,8.33-1.51,16.67-3.06,25.08-3.91,9.43-.96,18.92-1.34,28.4-1.63,11.31-.34,22.64-.27,33.95-.49,1.47-.03,2.93-.78,4.4-1.2-.45-1.51-.57-3.23-1.39-4.51-6.06-9.5-15.21-15.58-24.31-21.73-27.98-18.9-55.91-37.88-83.83-56.86-14.4-9.79-29.77-17.38-46.55-22.3-8.66-2.54-16.9-6.51-25.45-9.48-11.03-3.82-22.24-7.15-33.28-10.93-10.27-3.52-21.44-6.04-29.26-13.77-7.08-7-12.91-15.52-18.2-24.04-13.85-22.29-24.19-46.38-34.85-70.3-9.71-21.8-20.19-43.24-30.13-64.94-10.27-22.42-21.84-44.4-30.1-67.56-14.16-39.7-35.83-75.04-59.35-109.41-35.75-52.23-78.51-98.1-127.88-137.74-23.02-18.48-47.01-35.69-72.6-50.35-19.25-11.02-39.19-21.03-59.46-30.03-13.48-5.98-27.85-10.7-42.3-13.57-13.76-2.73-28.14-2.27-42.25-3.29-10.93-.78-22.14-.43-32.66-2.94-7.17-1.71-14.24-6.52-19.85-11.6-19.54-17.68-42.36-29.78-66.11-40.32-14.27-6.33-28.77-12.28-43.56-17.24-9.75-3.27-20.23-4.47-29.8,1.66-5.92,3.79-8.29,9.83-9.11,16.36-1.31,10.28,3.52,19.09,7.83,27.85,8.75,17.77,22.47,32.03,34.15,47.74,14.07,18.91,28.81,37.48,38.87,58.9,6.8,14.48,12.08,29.72,17.44,44.84,5.53,15.61,9.91,31.63,15.57,47.19,6.56,18.02,13.17,36.1,21.25,53.46,8.5,18.24,19.5,35.05,34.69,48.84,13.05,11.85,16.98,26.67,11.45,43.54-5.88,17.94-12.35,35.68-18.06,53.67-3.06,9.63-5.66,19.49-7.39,29.44-4.67,26.83-6.38,53.92-4.33,81.12,1.66,22.07,4.33,44.12,11.14,65.24,6.65,20.63,13.56,41.33,27.2,58.82,4.86,6.23,11.43,10.01,18.67,12.68,3.11,1.15,6.26-1.22,6.65-4.8,1.7-15.37,3.02-30.79,5.05-46.12,3.13-23.55,6.35-47.31,18.07-68.42,6.07-10.94,14.52-20.56,21.94-30.75,2.25-3.09,4.9-5.92,6.89-9.16,2.5-4.06,4.64-2.67,6.09.35,1.78,3.69,2.78,7.76,4.23,11.62,3.53,9.45,6.72,19.07,10.79,28.29,7.82,17.72,15.64,35.48,24.39,52.75,20.11,39.69,42.58,78.01,67.74,114.75,14.98,21.86,31.08,42.76,50.07,61.32,3.55,3.47,7.55,6.48,11.3,9.76,2.72,2.38,5.37,4.84,8.05,7.26-.38.52-.76,1.03-1.15,1.55-6.18-4.4-12.51-8.6-18.47-13.28-3.64-2.86-6.56-6.62-10.05-9.69-15.82-13.92-31.87-27.58-47.58-41.63-25.1-22.46-49.01-46.13-67.05-74.82-7.38-11.73-12.87-24.65-19.14-37.08-3.96-7.84-7.73-15.77-11.68-23.61-.44-.88-1.53-1.43-2.32-2.13-.82.94-2.11,1.77-2.39,2.85-.85,3.37-1.38,6.84-1.91,10.28-2.58,16.75-4.96,33.53-7.74,50.24-1.96,11.76-3.96,23.56-11.05,33.71-9.92,14.19-30.3,19.73-47.19,14.15-15-4.96-25.2-15.72-34.45-27.47-16.52-20.98-27.25-44.9-35.01-70.39-7.66-25.16-11.51-50.98-12.98-77.01-.99-17.51.75-35.22,1.86-52.8,1.25-19.79,5.47-39.07,11.01-58.12,3.15-10.81,4.78-22.06,7.69-32.95,2.17-8.12,4.55-16.36,8.26-23.83,2.48-5,1.99-8.8-.37-12.99-1.21-2.15-2.67-4.33-4.52-5.92-15.3-13.08-23.94-30.78-33.37-47.9-13.65-24.77-23.29-51.23-32.32-77.93-5.09-15.07-11.03-29.89-15.22-45.2-3.57-13.06-7.06-26.12-14.74-37.26-13.3-19.27-27.14-38.17-41.27-56.84-11.93-15.76-24.67-30.95-32.46-49.35-4.73-11.19-9.07-22.81-7.83-35.13,2.17-21.54,14.44-47.93,42.85-55.02,13.51-3.38,26.85-2.76,40.37-.36,35.4,6.3,66.74,22.26,96.78,41.01,10.06,6.28,19.07,14.28,28.46,21.6,5.17,4.03,10.28,6.78,17.45,6.84,14.61.12,29.31.98,43.79,2.9,11.9,1.57,23.57,4.97,35.27,7.83,8.82,2.16,17.52,4.81,26.3,7.13,15.24,4.03,29.47,10.57,42.64,18.99,27.7,17.72,55.52,35.32,82.37,54.27,41.7,29.43,79.09,63.81,112.83,102.19,34.02,38.7,63.99,80.3,89.12,125.2,8.77,15.67,14.65,32.97,21.81,49.54,10.26,23.72,20.05,47.66,30.83,71.14,11.4,24.84,23.65,49.29,35.65,73.85,9.01,18.45,18.16,36.83,27.37,55.17,4.88,9.71,12.15,16.12,22.96,19.67,12.31,4.04,23.99,10.05,35.85,15.4,13.94,6.28,28.33,11.82,41.52,19.42,17.58,10.13,34.86,21.06,51.08,33.24,28.25,21.22,56.19,42.95,83.01,65.92,11.69,10.02,20.3,23.63,30.31,35.61,1.17,1.4,2.33,2.81,3.47,4.24,4.02,5.07,2.73,8.49-3.35,10.15-9.25,2.52-18.3,5.88-27.62,8.05-9.97,2.32-20.13,3.84-30.25,5.39-10.17,1.55-20.48,2.3-30.58,4.15-11.03,2.02-21.92,4.85-32.84,7.44-10.4,2.47-20.76,5.11-31.57,7.78Z" fill="#04638b" stroke-width="0"/><path d="M290.62,1200.08h-41.32v-164.32c-.29-.08-.58-.15-.86-.23-.71,1.38-1.49,2.73-2.12,4.14-20.68,46.15-41.39,92.3-62,138.49-5.01,11.23-11.64,20.57-24.59,23.35-10.42,2.24-20.86,2.23-31.11-.7-10.74-3.07-16.99-11.04-21.37-20.84-9.94-22.26-19.96-44.48-29.93-66.73-10.99-24.51-21.97-49.03-32.97-73.54-.63-1.41-1.34-2.78-2.97-3.93v164.29H0c0-1.89,0-3.66,0-5.43,0-52.5,0-105,.02-157.5,0-3.66-.19-7.41.47-10.97,1.67-8.99,6.75-15.32,15.59-18.42,10.91-3.83,21.94-6.28,33.65-5.02,15.69,1.7,26.48,9.8,32.69,24.14,13.64,31.48,27.22,62.98,40.83,94.47,6.25,14.45,12.49,28.9,18.75,43.35.63,1.46,1.33,2.9,2.4,5.24,5.48-12.23,10.62-23.62,15.7-35.03,15.17-34.07,30.94-67.89,45.29-102.31,11.37-27.28,31.05-34.09,57.96-28.31,1.13.24,2.26.52,3.38.81,17.73,4.47,24.02,11.97,24.07,30.2.16,53.83.06,107.67.05,161.5,0,.97-.15,1.95-.26,3.31Z" fill="#04638b" stroke-width="0"/><path d="M955.21,1192.31c13.32,12.11,26.22,23.83,39.72,36.1-1.84.12-3,.26-4.17.26-12.66.02-25.33.17-37.99-.12-2.51-.06-5.48-1.25-7.39-2.89-8.95-7.72-17.73-15.66-26.3-23.81-2.99-2.84-6.13-3.28-9.94-3.17-26.29.73-52.6,2.31-78.85,1.57-17.12-.48-33.8-5.29-46.76-18.1-7.26-7.17-10.62-16.08-10.68-26.03-.19-33.49-.08-66.99-.08-100.48,0-21.87,9.36-34.89,30.08-42.39,12.01-4.35,24.37-6.2,37.07-6.16,27.83.09,55.68-.52,83.47.58,17.19.68,33.88,5.09,46.67,18.13,6.57,6.7,9.87,14.98,9.91,24.29.12,35.33.07,70.65.05,105.98,0,15.58-6.59,27.13-20.95,33.86-1.14.54-2.16,1.32-3.85,2.38ZM853.36,1142.34c14.65,0,28.63-.15,42.6.14,2.5.05,5.45,1.32,7.37,2.98,8.2,7.05,16.22,14.34,24.04,21.81,2.7,2.58,4.57,2.27,7.17.13,5.24-4.32,7.79-9.81,7.79-16.51.02-31.48.08-62.97-.03-94.45-.03-9.48-4.95-16.69-14.02-19.61-5.6-1.8-11.65-2.91-17.52-3.03-18.65-.38-37.32-.21-55.97-.1-5.31.03-10.64.35-15.91.98-15,1.78-21.99,9.76-21.99,24.77,0,29.65-.02,59.3,0,88.96.01,12.98,6.04,22.23,18.77,23.66,16.26,1.82,32.8,1.11,49.22,1.46.23,0,.47-.38,1.32-1.12-10.85-9.92-21.58-19.73-32.86-30.05Z" fill="#fa0" stroke-width="0"/><path d="M559.28,1199.68v-26.31c1.99,0,3.77,0,5.55,0,35.67,0,71.33.08,107-.09,5.43-.03,10.96-.76,16.25-1.99,10.34-2.41,15.61-9.54,15.61-20.07,0-5.33.02-10.67,0-16-.03-8.83-4.15-15.1-12.7-17.38-6.5-1.73-13.33-2.89-20.05-3.06-16.82-.43-33.68.36-50.49-.32-16.21-.66-31.81-4.47-45.57-13.71-10.04-6.74-15.97-15.66-15.22-28.36.42-7.14.17-14.33.06-21.49-.26-16.8,7.65-28.3,22.46-35.68,12.02-5.99,24.82-8.27,38.05-8.31,41.66-.11,83.32-.04,125.38-.04v26.74c-1.81,0-3.6,0-5.39,0-38,0-76-.06-114,.08-4.6.02-9.21.95-13.79,1.67-7.18,1.13-11.43,5.75-11.97,12.66-.63,8.09-.87,16.37.14,24.39,1.67,13.27,10.42,17.51,23.57,17.88,19.32.53,38.67-.21,57.99.26,16.95.42,33.17,4.16,47.65,13.7,9.92,6.53,15.39,15.2,14.77,27.49-.41,8.15-.24,16.33-.04,24.49.31,12.41-5.08,21.9-14.93,28.84-13.07,9.2-27.81,14.34-43.74,14.47-41.16.35-82.33.14-123.5.16-.83,0-1.65,0-3.07,0Z" fill="#fa0" stroke-width="0"/><path d="M1007.82,1006.6h41.06c0,1.97,0,3.91,0,5.84,0,45.5-.02,91,.01,136.49.01,15.37,6.72,22.94,21.98,23.38,24.13.7,48.28.81,72.42,1.03,16.33.14,32.66.03,49.35.03v26.31c-1.33,0-2.61,0-3.89,0-36.5,0-73,.09-109.5-.07-16.72-.08-33.04-2.68-48.2-10.24-14.92-7.43-22.97-19.82-23.1-36.25-.37-48.66-.13-97.32-.13-146.52Z" fill="#fa0" stroke-width="0"/><path d="M442.8,251.87c-8-25.52-23.61-45.71-40.89-65.53,10.7-3.82,21.16-5.83,29.93-2.54,8.68,3.26,16.75,9.84,21.75,18.83,4.44,7.99,7.55,16.05,5.13,25.41-2.38,9.2-6.16,17.43-15.91,23.82Z" fill="#04638b" stroke-width="0"/><path d="M1244.18,1141.4c17.18,0,30.34,13.09,30.37,30.22.03,17.17-13.15,30.47-30.2,30.48-16.95.01-30.46-13.4-30.52-30.32-.06-16.92,13.38-30.38,30.35-30.39ZM1219.71,1171.91c.02,13.97,9.82,25.19,24.62,25.14,16.44-.05,25.16-13.7,24.65-26.73-.41-10.32-9.42-24.52-25.99-23.81-13.17.57-23.42,11.35-23.28,25.4Z" fill="#fa0" stroke-width="0"/><path d="M1237.11,1174.19v14.15h-4.16v-34.33c6.56.54,13.12.73,19.55,1.75,3.52.56,5.4,3.46,5.6,7.3.2,3.99-.67,7.27-4.65,9-1.32.58-2.7,1.01-4.82,1.78,3.21,5,6.2,9.66,9.18,14.31-.36.45-.72.89-1.08,1.34-1.95-1.39-4.24-2.48-5.75-4.24-1.81-2.11-3.18-4.69-4.35-7.24-1.83-3.99-4.64-5.38-9.52-3.82ZM1237.41,1158.67c-1.08,11.53-.49,12.1,10.19,10.79.16-.02.33-.02.5-.03,3.15-.28,4.68-1.98,4.85-5.17.17-3.28-1.5-5.21-4.47-5.51-3.57-.36-7.2-.09-11.06-.09Z" fill="#fa0" stroke-width="0"/></svg>