<svg xmlns="http://www.w3.org/2000/svg" id="Layer_1" width="500.77" height="447.59" viewBox="0 0 500.77 447.59"><path d="M250.86,392.26c-11.12,9.23-21.56,18.52-32.65,26.97-15.04,11.45-31.23,21.01-49.8,25.73-34.14,8.67-59.94-6.33-68.94-40.23-4.72-17.76-5.09-35.86-2.59-53.97,1.94-14.11,4.54-28.13,6.89-42.43-9.88-3.48-20.21-6.66-30.19-10.72-21.73-8.84-42.31-19.56-58.49-37.27-20.19-22.1-20.1-51.38.19-73.41,16.24-17.64,36.81-28.3,58.56-37.05,9.85-3.96,19.98-7.22,30.43-10.96-1.46-6.95-3.1-14.02-4.41-21.15-4.5-24.52-6.85-49.1-.6-73.7,3.49-13.71,9.63-25.9,21.38-34.53,14.29-10.49,30.14-11.42,46.65-7.17,21.07,5.42,39.1,16.72,55.97,29.96,9.27,7.28,18.05,15.2,27.05,22.84,8.91-7.56,17.78-15.58,27.17-22.94,16.87-13.23,34.9-24.58,56-29.89,20.65-5.19,39.44-2.23,54.33,14.36,9.33,10.4,13.41,23.22,15.54,36.73,4.38,27.83-.11,54.99-6.39,82-.26,1.11-.42,2.25-.67,3.64,10.3,3.63,20.59,6.88,30.59,10.85,19.44,7.73,37.99,17.1,53.32,31.75,16.56,15.83,25.27,34.42,17.99,57.5-5.02,15.91-16.6,27.08-29.8,36.53-20.42,14.61-43.44,23.73-67.26,31.05-1.56.48-3.09,1.06-4.8,1.66,1.88,9.36,3.98,18.41,5.49,27.56,3.96,23.96,5.59,47.99-1.65,71.64-6.1,19.92-18.01,34.5-39.47,38.89-15.68,3.2-30.38-.91-44.56-7.28-23.72-10.65-43.76-26.54-62.47-44.28-.96-.91-1.92-1.83-2.8-2.67ZM249.81,302.72c13.15,0,26.3-.01,39.44,0,3.95,0,6.59-1.55,8.98-4.99,15.65-22.49,28.41-46.63,40.87-70.93.87-1.69.75-4.68-.18-6.37-11.06-20.13-22.81-39.89-33.43-60.24-6.17-11.83-14.38-17.87-27.93-15.72-2.06.33-4.29-.57-6.43-.54-19.98.28-39.96.64-59.95.95-3.57.06-6.05,1.41-8.18,4.55-15.34,22.66-28.97,46.3-40.87,70.92-.9,1.86-1.04,5-.07,6.72,13.32,23.63,26.95,47.07,40.34,70.66,2.11,3.72,5.03,5,8.96,5,12.82,0,25.63,0,38.44,0ZM126.78,313.93c-.27.86-.53,1.46-.64,2.09-2.61,15.88-5.88,31.7-7.6,47.67-1.48,13.77-.16,27.62,4.76,40.83,5,13.41,16.27,21.71,28.89,20,8.14-1.1,16.43-3.12,23.95-6.34,21.45-9.19,38.79-24.36,55.57-40.19,2.48-2.34,1.39-3.69-.26-5.74-12.04-14.88-24.08-29.76-35.82-44.88-2.44-3.14-5.09-4.26-8.75-4.6-7.61-.7-15.23-1.48-22.78-2.63-12.3-1.87-24.54-4.07-37.33-6.22ZM374.56,314.16c-1.57-.22-1.91-.34-2.22-.3-20.21,3.02-40.42,5.98-60.6,9.21-2.16.35-4.58,1.91-5.99,3.64-12.41,15.22-24.55,30.66-36.95,45.88-2,2.45-1.77,3.8.42,5.7,6.28,5.46,12.27,11.27,18.69,16.55,14.22,11.69,29.24,22.16,47.2,27.37,10.97,3.18,21.98,4.51,31.92-3.15,6.94-5.35,10.22-12.98,12.34-21.17,4.08-15.73,3.68-31.7,1.56-47.59-1.62-12.14-4.22-24.15-6.37-36.16ZM266.45,71.67c1.09,1.51,1.63,2.34,2.24,3.11,12.07,15.07,24.26,30.04,36.12,45.27,2.54,3.26,5.3,4.41,9.17,4.8,9.92.99,19.83,2.16,29.68,3.65,9.99,1.51,19.9,3.48,30.65,5.4,1.93-9.93,4.13-19.63,5.65-29.43,2.6-16.83,3.77-33.74.4-50.63-1.86-9.29-4.88-18.17-12.33-24.51-9.87-8.39-21.3-7.32-32.68-4.04-18.3,5.29-33.55,16.01-48,27.95-7.14,5.9-13.91,12.25-20.89,18.44ZM234.05,71.53c-7.1-6.26-13.88-12.63-21.06-18.51-14.23-11.65-29.19-22.17-47.12-27.52-7.72-2.3-15.57-3.75-23.55-1.39-12.56,3.72-17.88,13.67-21,25.21-4.28,15.86-3.78,32.02-1.63,48.07,1.63,12.13,4.22,24.13,6.37,36.13,2.03,0,3.18.14,4.29-.02,19.38-2.91,38.77-5.77,58.11-8.93,2.32-.38,4.86-1.99,6.43-3.78,3.5-3.99,6.33-8.56,9.66-12.72,9.55-11.94,19.21-23.8,29.51-36.53ZM109.92,286.05c.65-.72.96-.92,1.07-1.21,7.5-19.38,15.05-38.75,22.38-58.19.66-1.75.35-4.23-.35-6.06-6.76-17.71-13.99-35.25-20.42-53.09-1.83-5.07-3.9-5.57-8.27-3.94-8.72,3.26-17.67,5.95-26.3,9.42-16.31,6.55-31.86,14.55-44.43,27.18-13.86,13.93-15,29.02-3.23,43.12,3.49,4.19,7.55,8.04,11.87,11.39,15.44,11.98,33.17,19.61,51.44,26.07,5.45,1.92,10.99,3.59,16.24,5.29ZM390.41,285.58c5.17-1.57,10.41-2.98,15.51-4.76,21.3-7.44,42.01-15.98,58.96-31.58,17.48-16.09,17.94-32.84,1.11-49.55-12.9-12.8-28.78-20.85-45.34-27.59-9.93-4.04-20.17-7.29-30-10.8-6.07,15.87-10.84,31.2-17.74,45.51-5.47,11.34-7.69,21.5-.08,32.32.28.39.36.93.54,1.39,5.58,14.75,11.16,29.51,17.04,45.06ZM175.76,299.39c-9.68-16.88-18.67-32.56-28.27-49.3-5.23,14.34-10.04,27.52-15.19,41.62,14.83,2.62,28.6,5.05,43.46,7.68ZM353.18,197.3c5.16-14.18,9.96-27.35,15.09-41.43-14.83-2.61-28.58-5.04-43.43-7.65,9.72,16.83,18.73,32.44,28.34,49.08ZM132.25,155.46c5.29,14.44,10.12,27.63,15.25,41.65,9.43-16.63,18.32-32.32,27.87-49.16-14.63,2.55-28.28,4.93-43.12,7.51ZM353.1,250.47c-9.48,16.72-18.35,32.38-27.91,49.24,14.87-2.63,28.6-5.06,43.13-7.63-5.26-14.39-10.05-27.48-15.22-41.61ZM277.96,121.3c-9.42-11.31-18.26-21.94-27.68-33.25-9.44,11.37-18.32,22.06-27.61,33.25h55.29ZM250.33,359.55c9.54-11.52,18.33-22.14,27.53-33.26h-55.22c9.4,11.29,18.24,21.91,27.68,33.26Z" fill="#61dafa" stroke-width="0"/><path d="M250.66,178.57c24.19-.65,45.39,18.98,45.24,45.25-.16,27.17-21.27,45.69-45.72,45.64-24.72-.05-45.61-19.2-45.49-45.87.12-26.59,21.56-45.99,45.97-45.02Z" fill="#61dafa" stroke-width="0"/></svg>