<svg xmlns="http://www.w3.org/2000/svg" id="Layer_1" width="128" height="128" viewBox="0 0 128 128"><path d="M0,0h128v128H0V0ZM74.16,101.02c0,2.41.29,5.09-.07,7.69-.59,4.28,1.41,6.44,5.31,6.63,7.73.37,15.63,1.36,23.19.27,9.98-1.44,15.09-9.2,14.37-19.05-.52-7.04-4.66-11.55-10.58-14.67-4.7-2.48-9.66-4.52-14.14-7.33-1.63-1.02-3.21-3.86-2.98-5.63.23-1.77,2.49-4.11,4.33-4.66,3.07-.92,6.56-1.09,9.77-.69,3.54.43,6.97,1.85,10.8,2.95,0-2.64-.25-5.16.06-7.6.47-3.75-1.02-5.8-4.7-5.87-6.77-.12-13.65-.77-20.29.19-8.71,1.25-14.23,7.48-15.14,15.05-.96,8.03,2.58,14.44,10.57,18.65,3.82,2.01,7.9,3.53,11.71,5.55,3.12,1.65,6.41,3.73,5.52,7.97-.94,4.45-5,4.82-8.63,5.39-1.14.18-2.4.27-3.48-.04-5.04-1.45-10.03-3.06-15.62-4.78ZM51.06,115.76v-51.37h17.6v-11.01H18.29v11.3h17.94v51.08h14.83Z" fill="#3278c5" stroke-width="0"/><path d="M74.16,101.02c5.59,1.73,10.58,3.33,15.62,4.78,1.08.31,2.34.22,3.48.04,3.63-.57,7.69-.94,8.63-5.39.89-4.24-2.39-6.32-5.52-7.97-3.81-2.02-7.89-3.54-11.71-5.55-7.99-4.2-11.53-10.61-10.57-18.65.91-7.57,6.43-13.79,15.14-15.05,6.64-.96,13.52-.31,20.29-.19,3.68.07,5.17,2.11,4.7,5.87-.3,2.45-.06,4.96-.06,7.6-3.84-1.09-7.26-2.51-10.8-2.95-3.21-.39-6.7-.23-9.77.69-1.83.55-4.1,2.89-4.33,4.66-.23,1.77,1.35,4.6,2.98,5.63,4.48,2.81,9.44,4.85,14.14,7.33,5.92,3.13,10.06,7.63,10.58,14.67.72,9.85-4.39,17.61-14.37,19.05-7.56,1.09-15.46.1-23.19-.27-3.89-.19-5.89-2.35-5.31-6.63.36-2.59.07-5.28.07-7.69Z" fill="#fafcfd" stroke-width="0"/><path d="M51.06,115.76h-14.83v-51.08h-17.94v-11.3h50.37v11.01h-17.6v51.37Z" fill="#fafcfd" stroke-width="0"/></svg>